<mxfile host="Electron" modified="2024-01-10T15:47:25.409Z" agent="Mozilla/5.0 (X11; Linux x86_64) AppleWebKit/537.36 (KHTML, like Gecko) draw.io/22.1.16 Chrome/120.0.6099.109 Electron/28.1.0 Safari/537.36" etag="Gq_QyEfq-XuiQ4KzZod4" version="22.1.16" type="device">
  <diagram name="Page-1" id="BeeQXuH5mpLVNXQqc5U8">
    <mxGraphModel dx="574" dy="363" grid="1" gridSize="10" guides="1" tooltips="1" connect="1" arrows="1" fold="1" page="1" pageScale="1" pageWidth="850" pageHeight="1100" math="0" shadow="0">
      <root>
        <mxCell id="0" />
        <mxCell id="1" parent="0" />
        <mxCell id="tAaDNLIEK-Dx4jZg-7GC-17" style="edgeStyle=orthogonalEdgeStyle;shape=connector;curved=0;rounded=1;orthogonalLoop=1;jettySize=auto;html=1;labelBackgroundColor=default;strokeColor=#666666;strokeWidth=3;align=center;verticalAlign=middle;fontFamily=Helvetica;fontSize=11;fontColor=#666666;endArrow=openThin;endFill=0;fillColor=#FAE5C7;" parent="1" source="I0c3L2jA-JhZfiCe1uU5-3" target="tAaDNLIEK-Dx4jZg-7GC-4" edge="1">
          <mxGeometry relative="1" as="geometry">
            <mxPoint x="145" y="500" as="sourcePoint" />
            <Array as="points">
              <mxPoint x="170" y="500" />
              <mxPoint x="170" y="500" />
            </Array>
          </mxGeometry>
        </mxCell>
        <mxCell id="tAaDNLIEK-Dx4jZg-7GC-18" style="edgeStyle=orthogonalEdgeStyle;shape=connector;curved=0;rounded=1;orthogonalLoop=1;jettySize=auto;html=1;labelBackgroundColor=default;strokeColor=#666666;strokeWidth=3;align=center;verticalAlign=middle;fontFamily=Helvetica;fontSize=11;fontColor=#666666;endArrow=openThin;endFill=0;fillColor=#FAE5C7;" parent="1" source="tAaDNLIEK-Dx4jZg-7GC-4" target="tAaDNLIEK-Dx4jZg-7GC-9" edge="1">
          <mxGeometry relative="1" as="geometry" />
        </mxCell>
        <mxCell id="tAaDNLIEK-Dx4jZg-7GC-4" value="Create instace of&amp;nbsp;&lt;br&gt;MQTT Client" style="rounded=1;whiteSpace=wrap;html=1;strokeColor=#666666;fontColor=#666666;fillColor=#FFFFFF;strokeWidth=3;" parent="1" vertex="1">
          <mxGeometry x="183" y="470" width="120" height="60" as="geometry" />
        </mxCell>
        <mxCell id="tAaDNLIEK-Dx4jZg-7GC-19" style="edgeStyle=orthogonalEdgeStyle;shape=connector;curved=0;rounded=1;orthogonalLoop=1;jettySize=auto;html=1;labelBackgroundColor=default;strokeColor=#666666;strokeWidth=3;align=center;verticalAlign=middle;fontFamily=Helvetica;fontSize=11;fontColor=#666666;endArrow=openThin;endFill=0;fillColor=#FAE5C7;" parent="1" source="tAaDNLIEK-Dx4jZg-7GC-9" target="tAaDNLIEK-Dx4jZg-7GC-25" edge="1">
          <mxGeometry relative="1" as="geometry">
            <mxPoint x="380" y="380" as="targetPoint" />
          </mxGeometry>
        </mxCell>
        <mxCell id="tAaDNLIEK-Dx4jZg-7GC-9" value="Subscribe to topic&lt;br&gt;&lt;font face=&quot;Courier New&quot;&gt;&lt;b&gt;device-messages&lt;/b&gt;&lt;/font&gt;" style="rounded=1;whiteSpace=wrap;html=1;strokeColor=#666666;fontColor=#666666;fillColor=#FFFFFF;strokeWidth=3;" parent="1" vertex="1">
          <mxGeometry x="183" y="380" width="120" height="60" as="geometry" />
        </mxCell>
        <mxCell id="tAaDNLIEK-Dx4jZg-7GC-21" style="edgeStyle=orthogonalEdgeStyle;shape=connector;curved=0;rounded=1;orthogonalLoop=1;jettySize=auto;html=1;labelBackgroundColor=default;strokeColor=#666666;strokeWidth=3;align=center;verticalAlign=middle;fontFamily=Helvetica;fontSize=11;fontColor=#666666;endArrow=openThin;endFill=0;fillColor=#FAE5C7;" parent="1" source="tAaDNLIEK-Dx4jZg-7GC-11" target="tAaDNLIEK-Dx4jZg-7GC-13" edge="1">
          <mxGeometry relative="1" as="geometry" />
        </mxCell>
        <mxCell id="tAaDNLIEK-Dx4jZg-7GC-11" value="Extract Contents" style="rounded=1;whiteSpace=wrap;html=1;strokeColor=#666666;strokeWidth=3;align=center;verticalAlign=middle;fontFamily=Helvetica;fontSize=11;fontColor=#666666;fillColor=#FFFFFF;" parent="1" vertex="1">
          <mxGeometry x="327" y="470" width="120" height="60" as="geometry" />
        </mxCell>
        <mxCell id="tAaDNLIEK-Dx4jZg-7GC-22" style="edgeStyle=orthogonalEdgeStyle;shape=connector;curved=0;rounded=1;orthogonalLoop=1;jettySize=auto;html=1;labelBackgroundColor=default;strokeColor=#666666;strokeWidth=3;align=center;verticalAlign=middle;fontFamily=Helvetica;fontSize=11;fontColor=#666666;endArrow=openThin;endFill=0;fillColor=#FAE5C7;" parent="1" source="tAaDNLIEK-Dx4jZg-7GC-13" target="tAaDNLIEK-Dx4jZg-7GC-15" edge="1">
          <mxGeometry relative="1" as="geometry" />
        </mxCell>
        <mxCell id="tAaDNLIEK-Dx4jZg-7GC-13" value="Update observed&lt;br&gt;system status" style="rounded=1;whiteSpace=wrap;html=1;strokeColor=#666666;strokeWidth=3;align=center;verticalAlign=middle;fontFamily=Helvetica;fontSize=11;fontColor=#666666;fillColor=#FFFFFF;" parent="1" vertex="1">
          <mxGeometry x="470" y="470" width="120" height="60" as="geometry" />
        </mxCell>
        <mxCell id="Xe_NsLfLY9iD38-KMKIU-3" value="" style="edgeStyle=orthogonalEdgeStyle;shape=connector;curved=0;rounded=1;orthogonalLoop=1;jettySize=auto;html=1;labelBackgroundColor=default;strokeColor=#666666;strokeWidth=3;fontFamily=Helvetica;fontSize=12;fontColor=#666666;startArrow=none;startFill=0;endArrow=openThin;endFill=0;" parent="1" source="tAaDNLIEK-Dx4jZg-7GC-15" target="tAaDNLIEK-Dx4jZg-7GC-25" edge="1">
          <mxGeometry relative="1" as="geometry" />
        </mxCell>
        <mxCell id="tAaDNLIEK-Dx4jZg-7GC-15" value="Make the updated status available&lt;br&gt;to the other services" style="rounded=1;whiteSpace=wrap;html=1;strokeColor=#666666;strokeWidth=3;align=center;verticalAlign=middle;fontFamily=Helvetica;fontSize=11;fontColor=#666666;fillColor=#FFFFFF;" parent="1" vertex="1">
          <mxGeometry x="470" y="380" width="120" height="60" as="geometry" />
        </mxCell>
        <mxCell id="Xe_NsLfLY9iD38-KMKIU-6" value="" style="edgeStyle=orthogonalEdgeStyle;shape=connector;curved=0;rounded=1;orthogonalLoop=1;jettySize=auto;html=1;labelBackgroundColor=default;strokeColor=#666666;strokeWidth=3;fontFamily=Helvetica;fontSize=12;fontColor=#666666;startArrow=none;startFill=0;endArrow=openThin;endFill=0;" parent="1" source="tAaDNLIEK-Dx4jZg-7GC-25" target="tAaDNLIEK-Dx4jZg-7GC-11" edge="1">
          <mxGeometry relative="1" as="geometry" />
        </mxCell>
        <mxCell id="tAaDNLIEK-Dx4jZg-7GC-25" value="&lt;font style=&quot;&quot; face=&quot;Helvetica&quot;&gt;Wait for message&lt;/font&gt;" style="rounded=1;whiteSpace=wrap;html=1;strokeColor=#666666;fontColor=#666666;fillColor=#FFFFFF;strokeWidth=3;" parent="1" vertex="1">
          <mxGeometry x="327" y="380" width="120" height="60" as="geometry" />
        </mxCell>
        <mxCell id="I0c3L2jA-JhZfiCe1uU5-6" style="edgeStyle=orthogonalEdgeStyle;shape=connector;curved=0;rounded=1;orthogonalLoop=1;jettySize=auto;html=1;labelBackgroundColor=default;strokeColor=#666666;strokeWidth=3;align=center;verticalAlign=middle;fontFamily=Helvetica;fontSize=11;fontColor=#666666;endArrow=openThin;endFill=0;fillColor=#FAE5C7;" edge="1" parent="1" source="I0c3L2jA-JhZfiCe1uU5-2" target="I0c3L2jA-JhZfiCe1uU5-3">
          <mxGeometry relative="1" as="geometry" />
        </mxCell>
        <mxCell id="I0c3L2jA-JhZfiCe1uU5-2" value="Start" style="ellipse;whiteSpace=wrap;html=1;aspect=fixed;strokeColor=#666666;fontColor=#666666;fillColor=#FFFFFF;strokeWidth=3;" vertex="1" parent="1">
          <mxGeometry x="75" y="385" width="50" height="50" as="geometry" />
        </mxCell>
        <mxCell id="I0c3L2jA-JhZfiCe1uU5-3" value="Request state from&amp;nbsp;&lt;br&gt;Bran instace" style="rounded=1;whiteSpace=wrap;html=1;strokeColor=#666666;fontColor=#666666;fillColor=#FFFFFF;strokeWidth=3;" vertex="1" parent="1">
          <mxGeometry x="40" y="470" width="120" height="60" as="geometry" />
        </mxCell>
      </root>
    </mxGraphModel>
  </diagram>
</mxfile>
